<svg id="Layer_1" data-name="Layer 1" xmlns="http://www.w3.org/2000/svg" viewBox="0 0 700 100"><path d="M6.58,54.07V46.26L42.3,22.65V32.72L15.76,50v.38L42.3,67.62V77.69Z"/><path d="M57.23,19.92H73.32c18.13,0,29,10.14,29,30.45s-10.89,31-28.44,31H57.23ZM72.65,72.51c11.73,0,18.44-7,18.44-22.14S84.38,28.79,72.65,28.79H68.16V72.51Z"/><path d="M110.8,69c0-10.35,9.1-15.5,31.9-17.11-.39-5.17-3.46-9-11-9-5.19,0-10.33,2.27-15.08,4.9l-4-7.2c5.59-3.35,13.16-6.44,21.12-6.44,12.81,0,19.85,7.12,19.85,20V81.37h-8.93l-.83-5.72h-.32c-4.84,3.74-11,6.85-17.23,6.85C117.26,82.5,110.8,77,110.8,69Zm31.9-.61V58.66c-16.58,1.09-21.37,4.5-21.37,9.48,0,4.06,3.6,5.82,8.17,5.82S138.44,71.79,142.7,68.37Z"/><path d="M166.25,35.21h8.87l.83,6.95h.38c4.41-4.47,9.61-8.08,16.65-8.08,10.67,0,15.48,6.81,15.48,18.7V81.37H197.59V54.19c0-7.4-2.39-10.79-8.61-10.79-4.55,0-7.63,2.21-11.86,6.49V81.37H166.25Z"/><path d="M230.68,62.82v-19H218.33V35.71l12.81-.5,1.41-14.46h9V35.21h21v8.61h-21v19c0,7.63,2.87,11.06,10.67,11.06a28.59,28.59,0,0,0,10-1.86l2.1,7.91a44.89,44.89,0,0,1-14.77,2.62C235.49,82.5,230.68,74.58,230.68,62.82Z"/><path d="M272.94,58.23c0-15.06,11.43-24.15,23.79-24.15,13.78,0,21.42,9.14,21.42,21.92a35.68,35.68,0,0,1-.48,5.45h-37V53.78h30l-2.08,2.41c0-9.12-4.29-13.76-11.51-13.76-7.63,0-13.52,5.5-13.52,15.8,0,10.74,6.47,15.86,16.07,15.86a25.15,25.15,0,0,0,12.94-3.77l3.72,6.73a33.62,33.62,0,0,1-18.08,5.45C284.05,82.5,272.94,73.6,272.94,58.23Z"/><path d="M328.88,19.92H345c18.14,0,29,10.14,29,30.45s-10.88,31-28.44,31H328.88ZM344.3,72.51c11.73,0,18.45-7,18.45-22.14S356,28.79,344.3,28.79h-4.49V72.51Z"/><path d="M382.34,63.8V35.21h10.87V62.39c0,7.35,2.32,10.79,8.63,10.79,4.34,0,7.47-1.82,11.58-6.81V35.21h10.87V81.37h-8.94L414.52,74h-.37c-4.37,5-9.48,8.46-16.36,8.46C387.08,82.5,382.34,75.7,382.34,63.8Z"/><path d="M442.38,35.21h9l.93,10.5h.26c4.69-7.53,11.69-11.63,19.63-11.63a19.3,19.3,0,0,1,9,1.88l-2.3,9.19a23.64,23.64,0,0,0-8.36-1.43c-6.31,0-12.52,3.24-17.24,12.2V81.37H442.38Z"/><path d="M491.11,69c0-10.35,9.11-15.5,31.91-17.11-.39-5.17-3.47-9-11-9-5.2,0-10.33,2.27-15.08,4.9l-4-7.2c5.59-3.35,13.16-6.44,21.12-6.44,12.81,0,19.85,7.12,19.85,20V81.37H525l-.83-5.72h-.31c-4.85,3.74-11,6.85-17.23,6.85C497.58,82.5,491.11,77,491.11,69ZM523,68.37V58.66c-16.59,1.09-21.37,4.5-21.37,9.48,0,4.06,3.6,5.82,8.17,5.82S518.75,71.79,523,68.37Z"/><path d="M546.56,35.21h8.88l.83,6.95h.38c4.41-4.47,9.6-8.08,16.64-8.08,10.68,0,15.49,6.81,15.49,18.7V81.37H577.9V54.19c0-7.4-2.38-10.79-8.6-10.79-4.56,0-7.63,2.21-11.86,6.49V81.37H546.56Z"/><path d="M611,62.82v-19H598.65V35.71l12.8-.5,1.42-14.46h9V35.21h21v8.61h-21v19c0,7.63,2.87,11.06,10.67,11.06a28.59,28.59,0,0,0,10-1.86l2.1,7.91a44.89,44.89,0,0,1-14.77,2.62C615.81,82.5,611,74.58,611,62.82Z"/><path d="M657.09,67.62l26.55-17.26V50L657.09,32.72V22.65l35.72,23.61v7.81L657.09,77.69Z"/></svg>