<svg id="Layer_1" data-name="Layer 1" xmlns="http://www.w3.org/2000/svg" viewBox="0 0 180 100"><path d="M167.27,70.32h0a13.06,13.06,0,0,0-5.45-8.79.74.74,0,0,0-.13-.12h0l-.16-.11-.05,0-1.68-1.14-.06,0-.22-.14h0a1.09,1.09,0,0,0-.25-.1c-5.33-3-14.16-5.1-27.68-.6-3.22-5.12-3.59-9.22-1.43-15.5A1.61,1.61,0,0,0,129,41.46c-2.31-.93-5.48-.46-7.73.1a2.28,2.28,0,0,0-1.87,1.67c-1.43,6.28-5.56,12-9.56,17.56l-.24.33c-2.46-4.93-2-8.75-.23-13.54a1.48,1.48,0,0,0-.88-2.06c-2.65-1.29-6.61-.4-8.19,0-2,.55-4.16,5.66-6.56,11.78-.6,1.54-1.13,2.85-1.44,3.47-.74,1.42-1.45,3-2.2,4.78-1.69,3.91-3.6,8.31-6.33,11.07-1-2.07.56-5.33,2.08-8.5,1.8-3.74,3.49-7.28,1.54-9.54a3.63,3.63,0,0,0-2.52-1.23,4.18,4.18,0,0,0-1.86.28,9.43,9.43,0,0,0-.29-4.42,4.85,4.85,0,0,0-5.13-3.36c-5.82.16-10.74,4.25-13.85,7.65-2.07,2.28-6.66,4-10.69,5.55-1.59.64-3.1,1.21-4.37,1.78-2-1.6-4.57-3.22-7.26-4.93C33.89,55.15,25.31,49.71,25,42.34c-.42-10.88,12.72-18.6,24.19-24.11A107.64,107.64,0,0,1,72.3,9.79c9.63-2.12,17.76-1.69,24.17,1.27a7.22,7.22,0,0,1,4.1,8.76c-2.72,9.41-14,15.86-23.67,18.76a44.39,44.39,0,0,1-15.13,2.24,27,27,0,0,1-11.87-4,6.94,6.94,0,0,0-1-.52l-.09,0a1,1,0,0,0-1,.29,1.54,1.54,0,0,0-.11,1.5c1.86,4.59,5.71,7.48,11.43,8.61a28.51,28.51,0,0,0,5.68.51c13.39,0,30.47-7.28,36.74-13.27,4.28-4.08,7.39-8.28,8.68-15.52,1.35-7.58-4.1-12.85-9.65-15.28-13.5-5.87-28.82-3.55-39.3-.57A107.63,107.63,0,0,0,26.54,20c-12.15,9.33-16.54,18-13,25.77,3.57,8,12.29,13,20.72,17.79,2.73,1.56,5.32,3,7.65,4.57-.7.33-1.42.65-2.15,1C32.63,72.3,24.61,75.94,20.15,82c-3.23,4.38-3.84,8.74-1.8,13a8.64,8.64,0,0,0,5.72,4.53,16,16,0,0,0,4.31.54,30.93,30.93,0,0,0,14.15-3.85c5.54-3.28,9.14-7.69,10.68-13.1a19.64,19.64,0,0,0-1-13.87L59.05,66c-3.28,10.28-.76,16.42,2,19.8a7.15,7.15,0,0,0,9.9.1A37.53,37.53,0,0,0,75.83,78a12.21,12.21,0,0,0,.67,5.16,4.31,4.31,0,0,0,2.79,2.67,5.36,5.36,0,0,0,4.35-.9c6.71-4.33,11.3-14.73,15-23.09.52-1.19,1-2.33,1.51-3.4a42.85,42.85,0,0,0,3.79,8.88.91.91,0,0,1-.16,1.38c-.73.75-1.75,1.66-2.82,2.63-3.27,2.92-7.33,6.57-7.87,9.77a2.45,2.45,0,0,0,2.18,2.73c4.38.82,9.66-.38,14.12-3.22C113.44,78,115,74.45,113.92,70c-1-4.3,1.29-9.64,6.84-15.88a28.82,28.82,0,0,0,3.79,9l0,0c-4,3.32-9.57,7.88-8.71,13.4a3.81,3.81,0,0,0,1.69,2.64,4.56,4.56,0,0,0,3.39.59c5.29-1,9.27-3.16,12.17-6.45s1.83-6.93.86-9.76c7.57-1.93,14.31-1.89,20.62.15,3.54,1.14,6.08,3,7.54,5.6,1.85,3.26.85,6.27-2.81,8.47-1.12.68-1.66,1.09-1.7,1.61a.74.74,0,0,0,.31.64c.42.33,1.73.9,4.68-.86a9,9,0,0,0,4.74-6.56A10.31,10.31,0,0,0,167.27,70.32Zm-121,7.16,0,.36c-.47,4.18-2.72,7.83-6.7,10.85A15.49,15.49,0,0,1,31.87,92a5.24,5.24,0,0,1-3.66-.65,2.65,2.65,0,0,1-.9-2c-.5-7.28,11.6-14.51,18.41-16.89A14.26,14.26,0,0,1,46.26,77.48ZM77.24,57h0c-1.12,6-4.39,17.4-9.52,21.81-.25.21-.45.28-.54.26s-.17-.12-.25-.28c-1.71-3.75-1.08-10.08,1.52-15,2-3.83,4.84-6.37,8-7.14a1.75,1.75,0,0,1,.4,0,.5.5,0,0,1,.3.07A.44.44,0,0,1,77.24,57Zm25.28,22c-1,1-2.29.82-2,.47l4.92-4.92a9.69,9.69,0,0,1-2.94,4.45Zm20.39-4.26a4.45,4.45,0,0,1-1.49.4c-.14-2.59,2.52-5.51,5.15-7.45.7,2.7-.74,5.56-3.66,7.05Z"/></svg>